<svg width="18" height="18" viewBox="0 0 18 18" fill="none" xmlns="http://www.w3.org/2000/svg">
<path d="M2.58333 8.175L4.41667 6.34167L9.45833 11.3833L12.6667 8.175L15.4167 10.925V2.58333H2.58333V8.175ZM1.66667 0.75H16.3333C16.5764 0.75 16.8096 0.846577 16.9815 1.01849C17.1534 1.19039 17.25 1.42355 17.25 1.66667V16.3333C17.25 16.5764 17.1534 16.8096 16.9815 16.9815C16.8096 17.1534 16.5764 17.25 16.3333 17.25H1.66667C1.42355 17.25 1.19039 17.1534 1.01849 16.9815C0.846577 16.8096 0.75 16.5764 0.75 16.3333V1.66667C0.75 1.42355 0.846577 1.19039 1.01849 1.01849C1.19039 0.846577 1.42355 0.75 1.66667 0.75ZM12.2083 7.16667C11.8437 7.16667 11.4939 7.0218 11.2361 6.76394C10.9782 6.50608 10.8333 6.15634 10.8333 5.79167C10.8333 5.42699 10.9782 5.07726 11.2361 4.81939C11.4939 4.56153 11.8437 4.41667 12.2083 4.41667C12.573 4.41667 12.9227 4.56153 13.1806 4.81939C13.4385 5.07726 13.5833 5.42699 13.5833 5.79167C13.5833 6.15634 13.4385 6.50608 13.1806 6.76394C12.9227 7.0218 12.573 7.16667 12.2083 7.16667Z" fill="black"/>
</svg>
