<svg width="12" height="15" viewBox="0 0 12 15" fill="none" xmlns="http://www.w3.org/2000/svg">
<path d="M2.25467 3.97866C3.31716 3.12737 4.63854 2.66449 6 2.66666C7.41667 2.66666 8.71867 3.15732 9.74534 3.97866L10.714 3.00999L11.6567 3.95266L10.688 4.92132C11.3931 5.80409 11.8347 6.86801 11.9619 7.99065C12.089 9.11329 11.8967 10.249 11.4069 11.2671C10.9171 12.2853 10.1497 13.1444 9.19321 13.7457C8.23668 14.347 7.12982 14.666 6 14.666C4.87018 14.666 3.76332 14.347 2.8068 13.7457C1.85027 13.1444 1.08295 12.2853 0.593151 11.2671C0.103347 10.249 -0.0890385 9.11329 0.0381335 7.99065C0.165306 6.86801 0.606867 5.80409 1.312 4.92132L0.343337 3.95332L1.286 3.01066L2.25467 3.97932V3.97866ZM6.66667 7.99999V4.99666L3.33334 9.33332H5.33334V12.3333L8.66667 7.99999H6.66667ZM3.33334 0.666656H8.66667V1.99999H3.33334V0.666656Z" fill="black"/>
</svg>
