<svg width="28" height="32" viewBox="0 0 28 32" fill="none" xmlns="http://www.w3.org/2000/svg">
<path fill-rule="evenodd" clip-rule="evenodd" d="M10.8477 1.73755L13.8583 -9.53674e-05L27.7165 7.99697L24.7059 9.73462L10.8477 1.73755Z" fill="#EB278E"/>
<path fill-rule="evenodd" clip-rule="evenodd" d="M7.83594 3.47534L10.8466 1.7377L20.1869 7.13025L17.1763 8.8679L7.83594 3.47534Z" fill="#C40075"/>
<path fill-rule="evenodd" clip-rule="evenodd" d="M4.82422 5.21265L7.83483 3.475L10.8455 5.21265L7.83483 6.95029L4.82422 5.21265Z" fill="#9E005D"/>
<path fill-rule="evenodd" clip-rule="evenodd" d="M9.33984 9.55884L12.3505 7.81729L20.1874 12.343L17.1768 14.0806L9.33984 9.55884Z" fill="#9E005D"/>
<path fill-rule="evenodd" clip-rule="evenodd" d="M17.1758 10.6054L20.1864 8.86775L23.197 10.6054L27.7149 7.99697V11.4762L23.197 14.0807L17.1758 10.6054Z" fill="#C40075"/>
<path fill-rule="evenodd" clip-rule="evenodd" d="M27.7176 20.5238V23.9991L13.8594 32.0001V28.5248L27.7176 20.5238Z" fill="#EB278E"/>
<path fill-rule="evenodd" clip-rule="evenodd" d="M27.7153 17.0482V20.5235L18.3711 25.9161V22.4408L27.7153 17.0482Z" fill="#C40075"/>
<path fill-rule="evenodd" clip-rule="evenodd" d="M27.7176 13.5692V17.0484L24.707 18.7861V15.3108L27.7176 13.5692Z" fill="#9E005D"/>
<path fill-rule="evenodd" clip-rule="evenodd" d="M21.6963 15.3105V18.7857L13.8594 23.3075V19.8322L21.6963 15.3105Z" fill="#9E005D"/>
<path fill-rule="evenodd" clip-rule="evenodd" d="M16.8689 21.5702V25.0494L13.8583 26.7871V32L10.8477 30.2623V25.0494L16.8689 21.5702Z" fill="#C40075"/>
<path fill-rule="evenodd" clip-rule="evenodd" d="M3.01062 25.7366L0 23.9989V7.99697L3.01062 9.73462V25.7366Z" fill="#EB278E"/>
<path fill-rule="evenodd" clip-rule="evenodd" d="M6.02234 27.4743L3.01172 25.7367V14.9516L6.02234 16.6892V27.4743Z" fill="#C40075"/>
<path fill-rule="evenodd" clip-rule="evenodd" d="M9.03405 29.2119L6.02344 27.4742V23.9989L9.03405 25.7366V29.2119Z" fill="#9E005D"/>
<path fill-rule="evenodd" clip-rule="evenodd" d="M10.5341 23.1322L7.52344 21.3906V12.3432L10.5341 14.0808V23.1322Z" fill="#9E005D"/>
<path fill-rule="evenodd" clip-rule="evenodd" d="M7.52459 15.8182L4.51788 14.0805V10.6052L0 7.99683L3.01062 6.25918L7.52459 8.8676V15.8182Z" fill="#C40075"/>
</svg>
