<svg width="23" height="22" viewBox="0 0 23 22" fill="none" xmlns="http://www.w3.org/2000/svg">
<path d="M17 7.33332H18.8333C19.0764 7.33332 19.3096 7.4299 19.4815 7.60181C19.6534 7.77372 19.75 8.00688 19.75 8.24999V19.25C19.75 19.4931 19.6534 19.7263 19.4815 19.8982C19.3096 20.0701 19.0764 20.1667 18.8333 20.1667H4.16667C3.92355 20.1667 3.69039 20.0701 3.51849 19.8982C3.34658 19.7263 3.25 19.4931 3.25 19.25V8.24999C3.25 8.00688 3.34658 7.77372 3.51849 7.60181C3.69039 7.4299 3.92355 7.33332 4.16667 7.33332H6V6.41666C6 4.95797 6.57946 3.55902 7.61091 2.52757C8.64236 1.49612 10.0413 0.916656 11.5 0.916656C12.9587 0.916656 14.3576 1.49612 15.3891 2.52757C16.4205 3.55902 17 4.95797 17 6.41666V7.33332ZM10.5833 14.421V16.5H12.4167V14.421C12.7662 14.2192 13.0393 13.9077 13.1938 13.5349C13.3482 13.162 13.3753 12.7486 13.2709 12.3588C13.1664 11.9689 12.9362 11.6245 12.6161 11.3788C12.2959 11.1331 11.9036 10.9999 11.5 10.9999C11.0964 10.9999 10.7041 11.1331 10.3839 11.3788C10.0638 11.6245 9.83359 11.9689 9.72914 12.3588C9.62468 12.7486 9.65178 13.162 9.80622 13.5349C9.96066 13.9077 10.2338 14.2192 10.5833 14.421ZM15.1667 7.33332V6.41666C15.1667 5.4442 14.7804 4.51156 14.0927 3.82393C13.4051 3.1363 12.4725 2.74999 11.5 2.74999C10.5275 2.74999 9.59491 3.1363 8.90728 3.82393C8.21964 4.51156 7.83333 5.4442 7.83333 6.41666V7.33332H15.1667Z" fill="#1A1A1A"/>
</svg>
