<svg width="21" height="18" viewBox="0 0 21 18" fill="none" xmlns="http://www.w3.org/2000/svg">
<path d="M19.1666 3.5H12.7499C11.2912 3.5 9.89228 4.07946 8.86083 5.11091C7.82938 6.14236 7.24992 7.54131 7.24992 9C7.24992 10.4587 7.82938 11.8576 8.86083 12.8891C9.89228 13.9205 11.2912 14.5 12.7499 14.5H19.1666V16.3333C19.1666 16.5764 19.07 16.8096 18.8981 16.9815C18.7262 17.1534 18.493 17.25 18.2499 17.25H1.74992C1.5068 17.25 1.27365 17.1534 1.10174 16.9815C0.929829 16.8096 0.833252 16.5764 0.833252 16.3333V1.66667C0.833252 1.42355 0.929829 1.19039 1.10174 1.01849C1.27365 0.846577 1.5068 0.75 1.74992 0.75H18.2499C18.493 0.75 18.7262 0.846577 18.8981 1.01849C19.07 1.19039 19.1666 1.42355 19.1666 1.66667V3.5ZM12.7499 5.33333H20.0833V12.6667H12.7499C11.7775 12.6667 10.8448 12.2804 10.1572 11.5927C9.46956 10.9051 9.08325 9.97246 9.08325 9C9.08325 8.02754 9.46956 7.09491 10.1572 6.40728C10.8448 5.71964 11.7775 5.33333 12.7499 5.33333ZM12.7499 8.08333V9.91667H15.4999V8.08333H12.7499Z" fill="black"/>
</svg>
