<svg width="16" height="20" viewBox="0 0 16 20" fill="none" xmlns="http://www.w3.org/2000/svg">
<path d="M6.16675 9.08333H0.666748V1.75C0.666748 1.50689 0.763325 1.27373 0.935234 1.10182C1.10714 0.929911 1.3403 0.833334 1.58341 0.833334H14.4167C14.6599 0.833334 14.893 0.929911 15.0649 1.10182C15.2368 1.27373 15.3334 1.50689 15.3334 1.75V18.25C15.3334 18.4931 15.2368 18.7263 15.0649 18.8982C14.893 19.0701 14.6599 19.1667 14.4167 19.1667H1.58341C1.3403 19.1667 1.10714 19.0701 0.935234 18.8982C0.763325 18.7263 0.666748 18.4931 0.666748 18.25V10.9167H6.16675V13.6667L10.7501 10L6.16675 6.33333V9.08333Z" fill="#1A1A1A"/>
</svg>
