<svg width="16" height="16" viewBox="0 0 16 16" fill="none" xmlns="http://www.w3.org/2000/svg">
<path d="M14.6666 4H9.99992C8.93905 4 7.92164 4.42143 7.17149 5.17157C6.42135 5.92172 5.99992 6.93913 5.99992 8C5.99992 9.06087 6.42135 10.0783 7.17149 10.8284C7.92164 11.5786 8.93905 12 9.99992 12H14.6666V13.3333C14.6666 13.5101 14.5963 13.6797 14.4713 13.8047C14.3463 13.9298 14.1767 14 13.9999 14H1.99992C1.82311 14 1.65354 13.9298 1.52851 13.8047C1.40349 13.6797 1.33325 13.5101 1.33325 13.3333V2.66667C1.33325 2.48986 1.40349 2.32029 1.52851 2.19526C1.65354 2.07024 1.82311 2 1.99992 2H13.9999C14.1767 2 14.3463 2.07024 14.4713 2.19526C14.5963 2.32029 14.6666 2.48986 14.6666 2.66667V4ZM9.99992 5.33333H15.3333V10.6667H9.99992C9.29268 10.6667 8.6144 10.3857 8.1143 9.88562C7.6142 9.38552 7.33325 8.70724 7.33325 8C7.33325 7.29276 7.6142 6.61448 8.1143 6.11438C8.6144 5.61428 9.29268 5.33333 9.99992 5.33333ZM9.99992 7.33333V8.66667H11.9999V7.33333H9.99992Z" fill="black"/>
</svg>
